# xmcd
#
# Track frame offsets:
#	150
#	13655
#	24077
#	33430
#	44014
#	54007
#	65768
#	76807
#	87014
#	100994
#	113057
#	126187
#	138790
#	150829
#	162219
#	173419
#	186452
#	195405
#	206967
#	217544
#	228640
#	239018
#
# Disc length: 3313 seconds
# Revision: 0
# Processed by: cddbd v1.5.2PL0 Copyright (c) Steve Scherf et al.
# Submitted via: dBpowerAMP V12.0
#
DISCID=160cef16
DTITLE=Glen Campbell - Gentle On My Mind/By The Time I Get To Phoenix
DYEAR=1967
DGENRE=Country
TTITLE0=Gentle on My Mind
TTITLE1=Catch the Wind
TTITLE2=It’s Over
TTITLE3=Bowling Green
TTITLE4=Just Another Man
TTITLE5=You’re My World
TTITLE6=The World I Used to Know
TTITLE7=Without Her
TTITLE8=Mary in the Morning
TTITLE9=Love Me As Though There Were No Tomorrow
TTITLE10=Cryin’
TTITLE11=By the Time I Get to Phoenix
TTITLE12=Homeward Bound
TTITLE13=Tomorrow Never Comes
TTITLE14=Cold December (In Your Heart)
TTITLE15=My Baby's Gone
TTITLE16=Back in the Race
TTITLE17=Hey Little One
TTITLE18=Bad Seed
TTITLE19=I'll Be Lucky Someday
TTITLE20=You're Young and You'll Forget
TTITLE21=Love Is a Lonesome River
EXTD=
EXTT0=
EXTT1=
EXTT2=
EXTT3=
EXTT4=
EXTT5=
EXTT6=
EXTT7=
EXTT8=
EXTT9=
EXTT10=
EXTT11=
EXTT12=
EXTT13=
EXTT14=
EXTT15=
EXTT16=
EXTT17=
EXTT18=
EXTT19=
EXTT20=
EXTT21=
PLAYORDER=
